<svg width="89" height="46" viewBox="0 0 89 46" fill="none" xmlns="http://www.w3.org/2000/svg">
<path d="M44.7404 21.3533C44.3224 20.7431 44.1225 20.022 44.1699 19.2962V16.3135C44.1699 15.3992 44.359 14.7044 44.7372 14.2291C45.1154 13.7537 45.7649 13.517 46.6858 13.5191C47.5512 13.5191 48.1654 13.7213 48.5287 14.1259C48.9249 14.6421 49.1176 15.2733 49.0735 15.91V16.6109H47.5255V15.9009C47.531 15.6685 47.516 15.4361 47.4807 15.2061C47.4584 15.0488 47.3804 14.9033 47.2595 14.7934C47.1006 14.675 46.9003 14.6175 46.6987 14.6326C46.4866 14.6176 46.2762 14.6782 46.1089 14.8025C45.9741 14.9243 45.8842 15.0838 45.8525 15.2576C45.8081 15.5011 45.7878 15.7479 45.7916 15.995V19.6147C45.7672 19.964 45.8355 20.3134 45.9904 20.6312C46.0673 20.7387 46.1743 20.824 46.2993 20.8775C46.4243 20.9311 46.5625 20.9508 46.6987 20.9346C46.897 20.9501 47.0937 20.8912 47.2467 20.7708C47.3728 20.6523 47.454 20.4976 47.4775 20.3308C47.5136 20.0907 47.5297 19.8482 47.5255 19.6056V18.8714H49.0735V19.5419C49.117 20.2056 48.9289 20.8644 48.5383 21.4171C48.1825 21.86 47.5768 22.0815 46.6858 22.0815C45.7949 22.0815 45.1218 21.8449 44.7404 21.3533Z" fill="#AFB1B8"/>
<path d="M51.1856 21.3837C50.7946 20.9194 50.5991 20.2428 50.5991 19.3477V16.2104C50.5991 15.3244 50.7946 14.6538 51.1856 14.1987C51.5766 13.7436 52.2304 13.517 53.147 13.5191C54.0572 13.5191 54.7078 13.7456 55.0988 14.1987C55.4898 14.6538 55.6885 15.3244 55.6885 16.2104V19.3477C55.6885 20.2337 55.4898 20.9134 55.0924 21.3806C54.695 21.8479 54.0476 22.0815 53.147 22.0815C52.2464 22.0815 51.5798 21.8449 51.1856 21.3837ZM53.8681 20.6312C54.0081 20.3404 54.0719 20.0219 54.054 19.7027V15.8615C54.072 15.5485 54.0093 15.2361 53.8713 14.9512C53.7928 14.8414 53.6832 14.7547 53.5551 14.7011C53.4271 14.6474 53.2856 14.629 53.147 14.6478C53.0079 14.6294 52.8662 14.6481 52.7377 14.7017C52.6093 14.7553 52.4991 14.8417 52.4195 14.9512C52.2786 15.2353 52.2147 15.5481 52.2336 15.8615V19.7209C52.2141 20.0402 52.278 20.3591 52.4195 20.6494C52.5097 20.7473 52.6211 20.8257 52.746 20.8795C52.8709 20.9332 53.0066 20.961 53.1438 20.961C53.281 20.961 53.4167 20.9332 53.5416 20.8795C53.6665 20.8257 53.7779 20.7473 53.8681 20.6494V20.6312Z" fill="#AFB1B8"/>
<path d="M57.5505 13.6104H59.2171L60.4702 19.3989L61.7522 13.6104H63.3739L63.5374 21.9656H62.3387L62.2105 16.1588L60.9734 21.9656H60.0119L58.7299 16.1375L58.6114 21.9656H57.3999L57.5505 13.6104Z" fill="#AFB1B8"/>
<path d="M65.4061 13.6104H68.0021C69.4977 13.6104 70.2455 14.4012 70.2455 15.9828C70.2455 17.4977 69.4581 18.2542 67.8835 18.2521H66.9989V21.9656H65.3965L65.4061 13.6104ZM67.6239 17.1812C67.7822 17.2002 67.943 17.1865 68.0952 17.1409C68.2474 17.0953 68.3873 17.019 68.5052 16.9172C68.689 16.6351 68.77 16.3036 68.736 15.9737C68.7444 15.7188 68.7185 15.464 68.6591 15.2153C68.6362 15.1322 68.5961 15.0542 68.5411 14.986C68.486 14.9178 68.4172 14.8606 68.3386 14.8178C68.1161 14.7168 67.8702 14.6709 67.6239 14.6843H67.0021V17.1812H67.6239Z" fill="#AFB1B8"/>
<path d="M72.5559 13.6104H74.277L76.0428 21.9656H74.5494L74.2 20.0391H72.6649L72.3059 21.9656H70.79L72.5559 13.6104ZM74.027 19.0713L73.4277 15.5642L72.8283 19.0713H74.027Z" fill="#AFB1B8"/>
<path d="M77.469 13.6104H78.5908L80.7381 18.3765V13.6104H82.0681V21.9656H81.0009L78.8407 16.9901V21.9656H77.4658L77.469 13.6104Z" fill="#AFB1B8"/>
<path d="M85.1836 18.7799L83.3984 13.6221H84.9015L85.9912 16.9352L87.0136 13.6221H88.4846L86.7219 18.7799V21.9656H85.1836V18.7799Z" fill="#AFB1B8"/>
<path d="M47.2146 25.6191V26.056H45.907V29.4512H45.3589V26.056H44.0449V25.6191H47.2146Z" fill="#AFB1B8"/>
<path d="M51.3141 29.4514H50.891C50.8481 29.454 50.8057 29.441 50.7724 29.415C50.7404 29.3928 50.7159 29.3622 50.7019 29.327L50.3238 28.4169H48.5097L48.1316 29.327C48.1208 29.3651 48.1011 29.4004 48.0739 29.4302C48.0403 29.4556 47.9982 29.4685 47.9553 29.4666H47.5322L49.1347 25.6348H49.6924L51.3141 29.4514ZM48.6604 28.0285H50.1731L49.5321 26.4691C49.4848 26.3512 49.4452 26.2306 49.4135 26.1081C49.3911 26.1809 49.3719 26.2507 49.3526 26.3113L49.295 26.4721L48.6604 28.0285Z" fill="#AFB1B8"/>
<path d="M54.0766 29.0751C54.177 29.0801 54.2775 29.0801 54.3779 29.0751C54.4645 29.0666 54.5503 29.0514 54.6343 29.0296C54.7128 29.0113 54.7899 28.988 54.865 28.9598C54.9356 28.9325 55.0061 28.8991 55.0798 28.8657V28.004H54.4388C54.4229 28.0048 54.4071 28.0026 54.3922 27.9973C54.3773 27.9921 54.3637 27.984 54.3523 27.9736C54.3417 27.965 54.3334 27.9543 54.3279 27.9422C54.3223 27.9301 54.3197 27.917 54.3202 27.9038V27.6095H55.5637V29.0781C55.4622 29.1469 55.355 29.2077 55.2432 29.2602C55.129 29.3136 55.0099 29.3572 54.8875 29.3907C54.7564 29.4272 54.6224 29.4535 54.4869 29.4695C54.3315 29.4859 54.1753 29.494 54.0189 29.4938C53.7425 29.496 53.4683 29.4476 53.2113 29.3512C52.9714 29.2599 52.7534 29.1236 52.5703 28.9507C52.3919 28.776 52.2514 28.5698 52.1569 28.3438C52.0559 28.0898 52.0059 27.8202 52.0095 27.5488C52.0061 27.2757 52.055 27.0043 52.1537 26.7477C52.2459 26.5207 52.3866 26.314 52.5671 26.1409C52.75 25.9685 52.9681 25.8332 53.2081 25.7434C53.4825 25.6456 53.7738 25.5973 54.067 25.6008C54.2162 25.6006 54.3652 25.6117 54.5125 25.6341C54.6428 25.6542 54.7706 25.6868 54.8939 25.7312C55.006 25.7711 55.1134 25.822 55.2144 25.883C55.3126 25.9428 55.4058 26.0098 55.4932 26.0832L55.3394 26.3199C55.3273 26.3415 55.3094 26.3597 55.2874 26.3725C55.2654 26.3853 55.2402 26.3923 55.2144 26.3927C55.1789 26.3916 55.1445 26.3811 55.115 26.3624C55.067 26.3381 55.0157 26.3078 54.958 26.2714C54.8898 26.2309 54.818 26.1964 54.7433 26.1682C54.6477 26.1319 54.5491 26.1035 54.4484 26.0832C54.3142 26.0598 54.1779 26.0486 54.0414 26.0498C53.8299 26.0476 53.62 26.0837 53.4228 26.156C53.2445 26.2238 53.0838 26.3273 52.9517 26.4595C52.8189 26.5972 52.7174 26.7594 52.6536 26.9359C52.5105 27.3509 52.5105 27.7983 52.6536 28.2133C52.7238 28.3935 52.833 28.5579 52.9741 28.6958C53.1056 28.8273 53.2651 28.9307 53.4421 28.9992C53.6458 29.0655 53.8619 29.0913 54.0766 29.0751V29.0751Z" fill="#AFB1B8"/>
<path d="M59.1851 29.0143H60.9351V29.4512H58.6499V25.6191H59.198L59.1851 29.0143Z" fill="#AFB1B8"/>
<path d="M62.7556 29.4512H62.2075V25.6191H62.7556V29.4512Z" fill="#AFB1B8"/>
<path d="M64.7939 25.6369C64.8265 25.6545 64.8548 25.6782 64.8772 25.7067L67.22 28.5953C67.2168 28.5498 67.2168 28.5042 67.22 28.4587C67.22 28.4163 67.22 28.3738 67.22 28.3343V25.6035H67.6975V29.4509H67.4219C67.3811 29.4541 67.3401 29.4468 67.3033 29.4297C67.27 29.4106 67.2407 29.3859 67.2168 29.3569L64.8772 26.4713C64.8772 26.5168 64.8772 26.5593 64.8772 26.6018C64.8772 26.6443 64.8772 26.6837 64.8772 26.7201V29.4509H64.4189V25.6187H64.7042C64.7351 25.6187 64.7657 25.6249 64.7939 25.6369V25.6369Z" fill="#AFB1B8"/>
<path d="M71.7323 25.6191V26.0409H69.7901V27.3061H71.3637V27.7127H69.7901V29.0204H71.7323V29.4421H69.2261V25.6191H71.7323Z" fill="#AFB1B8"/>
<path d="M14.3035 1.95391L38.6385 8.49527V31.4173L14.3035 24.879V1.95391ZM12.7427 0V25.9925L40.196 33.3743V7.38482L12.7427 0Z" fill="#AFB1B8"/>
<path d="M27.4565 45.4402L0 38.0522V12.0625L27.4565 19.4474V45.4402Z" fill="#AFB1B8"/>
<path d="M13.1978 1.65958L37.2155 8.11891L27.0014 17.7912L2.98057 11.3288L13.1978 1.65958ZM12.7427 0L0 12.0631L27.4565 19.4478L40.196 7.38469L12.7427 0Z" fill="#AFB1B8"/>
<path d="M29.0015 43.978L40.1962 33.3774L29.0015 30.3647V43.978Z" fill="#AFB1B8"/>
</svg>
