<svg width="41" height="43" viewBox="0 0 41 43" fill="none" xmlns="http://www.w3.org/2000/svg">
<path d="M6.34566 41.7948C6.36067 41.7952 6.37546 41.7985 6.38915 41.8043C6.40284 41.8102 6.41516 41.8187 6.42539 41.8291L6.63116 42.0448C6.47144 42.2194 6.27403 42.359 6.05243 42.4541C5.79293 42.5579 5.51326 42.6081 5.23192 42.6012C4.96755 42.6064 4.70488 42.5597 4.46028 42.4639C4.23964 42.376 4.04139 42.244 3.87898 42.0767C3.71321 41.9032 3.58553 41.6999 3.50344 41.4787C3.41355 41.2321 3.36916 40.9725 3.37226 40.7115C3.36861 40.4488 3.4166 40.1878 3.51373 39.9419C3.60359 39.7193 3.73912 39.516 3.91241 39.3439C4.08805 39.1751 4.29815 39.0425 4.52973 38.9542C4.78306 38.8606 5.05283 38.814 5.32452 38.8169C5.57689 38.8111 5.82792 38.8536 6.06272 38.9419C6.26644 39.0262 6.45349 39.143 6.61573 39.2875L6.4434 39.5179C6.43149 39.5341 6.41669 39.5482 6.39967 39.5596C6.37934 39.5728 6.35477 39.5789 6.33022 39.5767C6.30353 39.575 6.27779 39.5665 6.25563 39.5522L6.16303 39.4909L6.03443 39.4125C5.97891 39.3834 5.92133 39.358 5.86209 39.3365C5.78581 39.3105 5.70756 39.29 5.62803 39.2753C5.52709 39.2575 5.42457 39.2493 5.32195 39.2508C5.12631 39.2484 4.93215 39.2834 4.75093 39.3537C4.58192 39.4188 4.42937 39.5174 4.30338 39.6429C4.17512 39.7764 4.07629 39.9331 4.01273 40.1037C3.94029 40.2988 3.90458 40.5046 3.90727 40.7115C3.90418 40.9217 3.93987 41.1307 4.01273 41.3291C4.07549 41.4983 4.1725 41.654 4.29823 41.7875C4.41604 41.9119 4.56206 42.0092 4.72521 42.0718C4.89311 42.1381 5.07333 42.1715 5.25507 42.1698C5.36005 42.1714 5.465 42.1648 5.56887 42.1502C5.73848 42.1305 5.90118 42.0743 6.04472 41.986C6.11671 41.9407 6.18467 41.8899 6.24792 41.834C6.27436 41.81 6.30914 41.7961 6.34566 41.7948V41.7948Z" fill="#AFB1B8"/>
<path d="M12.2871 40.7108C12.2903 40.9709 12.2432 41.2292 12.1482 41.473C12.0644 41.6941 11.9323 41.8958 11.7608 42.0648C11.5892 42.2338 11.382 42.3662 11.1528 42.4533C10.6492 42.6363 10.0925 42.6363 9.58896 42.4533C9.36125 42.3648 9.15539 42.2321 8.98452 42.0636C8.81305 41.8916 8.68004 41.6882 8.59356 41.4657C8.40827 40.972 8.40827 40.4325 8.59356 39.9388C8.6813 39.7162 8.81414 39.5122 8.98452 39.3384C9.15685 39.1752 9.3626 39.0476 9.58896 38.9635C10.0919 38.7772 10.6499 38.7772 11.1528 38.9635C11.3813 39.0519 11.588 39.1846 11.7598 39.3531C11.9292 39.5235 12.0612 39.7243 12.1482 39.9437C12.2435 40.1892 12.2906 40.4492 12.2871 40.7108ZM11.747 40.7108C11.751 40.5028 11.718 40.2956 11.6492 40.0981C11.5916 39.929 11.4979 39.7729 11.374 39.6399C11.2534 39.5139 11.1049 39.4152 10.9393 39.3507C10.5734 39.2167 10.1684 39.2167 9.80245 39.3507C9.63684 39.4152 9.48836 39.5139 9.36776 39.6399C9.24215 39.7722 9.14747 39.9284 9.08997 40.0981C8.9591 40.4971 8.9591 40.9246 9.08997 41.3235C9.14803 41.4931 9.24265 41.6492 9.36776 41.7818C9.48851 41.907 9.637 42.0049 9.80245 42.0685C10.169 42.1991 10.5728 42.1991 10.9393 42.0685C11.1048 42.0049 11.2533 41.907 11.374 41.7818C11.4974 41.6484 11.591 41.4925 11.6492 41.3235C11.7183 41.1261 11.7513 40.9189 11.747 40.7108V40.7108Z" fill="#AFB1B8"/>
<path d="M16.3408 41.3535L16.3948 41.4907C16.4154 41.4417 16.4334 41.3976 16.4539 41.3535C16.4736 41.3074 16.4959 41.2624 16.5208 41.2187L17.8352 38.9422C17.8609 38.903 17.884 38.8785 17.9098 38.8712C17.9447 38.861 17.9813 38.8569 18.0178 38.8589H18.4062V42.5615H17.9458V39.8391C17.9458 39.8048 17.9458 39.7656 17.9458 39.7239C17.9433 39.6815 17.9433 39.6389 17.9458 39.5965L16.6237 41.9048C16.6069 41.9394 16.58 41.9686 16.5463 41.989C16.5125 42.0095 16.4733 42.0202 16.4334 42.02H16.3588C16.3187 42.0205 16.2794 42.0099 16.2456 41.9894C16.2118 41.969 16.185 41.9396 16.1684 41.9048L14.8078 39.5818C14.8078 39.6259 14.8078 39.67 14.8078 39.7141C14.8078 39.7582 14.8078 39.7974 14.8078 39.8317V42.5542H14.3628V38.8589H14.7512C14.7877 38.8569 14.8243 38.861 14.8592 38.8712C14.8911 38.8862 14.9165 38.9113 14.9312 38.9422L16.2739 41.2211C16.3003 41.2633 16.3227 41.3075 16.3408 41.3535V41.3535Z" fill="#AFB1B8"/>
<path d="M21.2869 41.1695V42.5564H20.7725V38.8588H21.9196C22.1362 38.8548 22.3521 38.8821 22.5601 38.9396C22.7266 38.9846 22.881 39.0631 23.0128 39.17C23.127 39.2701 23.2151 39.3943 23.27 39.5326C23.3307 39.6835 23.3604 39.844 23.3575 40.0056C23.3597 40.1677 23.3274 40.3286 23.2623 40.4785C23.2005 40.6203 23.1054 40.7469 22.9845 40.8485C22.8525 40.9598 22.6974 41.0433 22.5292 41.0935C22.329 41.1545 22.1195 41.1835 21.9093 41.1793L21.2869 41.1695ZM21.2869 40.7725H21.9093C22.0446 40.7742 22.1792 40.7552 22.308 40.7162C22.4143 40.6821 22.5123 40.6279 22.5961 40.5569C22.6734 40.4891 22.7332 40.4052 22.771 40.3118C22.8131 40.2131 22.8341 40.1073 22.8327 40.0006C22.8387 39.8979 22.8211 39.7951 22.7811 39.6994C22.7412 39.6038 22.6798 39.5176 22.6013 39.4469C22.4047 39.3007 22.1579 39.2299 21.9093 39.2484H21.2869V40.7725Z" fill="#AFB1B8"/>
<path d="M28.2007 42.5614H27.7943C27.7536 42.5629 27.7135 42.5508 27.6812 42.5271C27.652 42.504 27.6291 42.4746 27.6143 42.4413L27.2645 41.5468H25.5077L25.145 42.4413C25.1317 42.474 25.1095 42.5028 25.0807 42.5246C25.048 42.5497 25.007 42.5628 24.965 42.5614H24.5586L26.1019 38.8584H26.6369L28.2007 42.5614ZM25.6543 41.1866H27.105L26.4928 39.6794C26.4461 39.566 26.4074 39.4497 26.3771 39.3314L26.3179 39.525C26.2999 39.5838 26.2794 39.6377 26.2614 39.6818L25.6543 41.1866Z" fill="#AFB1B8"/>
<path d="M30.4233 38.8756C30.4541 38.8917 30.4805 38.9143 30.5005 38.9418L32.7511 41.7331C32.7511 41.689 32.7511 41.6449 32.7511 41.6032C32.7511 41.5616 32.7511 41.5199 32.7511 41.4807V38.8585H33.2115V42.5614H32.9543C32.9178 42.5625 32.8816 42.5549 32.8489 42.5394C32.8171 42.5217 32.7892 42.4984 32.7666 42.4708L30.5185 39.6819C30.521 39.7243 30.521 39.7669 30.5185 39.8093C30.5185 39.851 30.5185 39.8878 30.5185 39.9221V42.5614H30.0581V38.8585H30.3308C30.3626 38.8576 30.3942 38.8635 30.4233 38.8756V38.8756Z" fill="#AFB1B8"/>
<path d="M37.0028 41.0887V42.5591H36.4883V41.0887L35.0659 38.8586H35.5263C35.566 38.8564 35.6052 38.8677 35.6369 38.8905C35.6649 38.9142 35.6884 38.9424 35.7064 38.9738L36.5964 40.4123C36.6324 40.4736 36.6632 40.5299 36.689 40.5839C36.7147 40.6378 36.7353 40.6892 36.7533 40.7407L36.8201 40.5814C36.8451 40.5232 36.8743 40.4667 36.9076 40.4123L37.7847 38.964C37.8031 38.9351 37.8256 38.9087 37.8516 38.8856C37.8821 38.8602 37.9217 38.847 37.9622 38.8488H38.4277L37.0028 41.0887Z" fill="#AFB1B8"/>
<path d="M16.0859 32.6443C16.3097 32.6712 16.5361 32.6933 16.765 32.7129C20.2356 31.2337 23.1716 28.8127 25.206 25.7526C27.2404 22.6924 28.283 19.1289 28.2033 15.5073L24.3785 11.8633C25.1562 15.7191 24.7925 19.705 23.3279 23.3751C21.8634 27.0452 19.3559 30.2546 16.0859 32.6443V32.6443Z" fill="#AFB1B8"/>
<path d="M14.7202 32.4748L14.8231 32.4944C18.3173 30.1132 20.9814 26.788 22.4708 22.9488C23.9601 19.1097 24.2063 14.9331 23.1774 10.9592L17.7296 5.76904C19.9331 10.0353 20.82 14.8098 20.2873 19.5374C19.7546 24.265 17.824 28.7514 14.7202 32.4748V32.4748Z" fill="#AFB1B8"/>
<path d="M33.1959 19.7861C32.2704 23.7654 30.0225 27.3541 26.7861 30.0196C25.841 30.8023 24.8214 31.4996 23.7407 32.1025C26.3761 31.3646 28.7983 30.0598 30.8207 28.289C32.8432 26.5181 34.4117 24.3284 35.4054 21.8887L33.1959 19.7861Z" fill="#AFB1B8"/>
<path d="M32.3292 19.2002L29.1835 16.2031C29.1233 19.6201 28.1037 22.9594 26.2306 25.8739C24.3575 28.7885 21.6993 31.1718 18.5322 32.7764H18.5477C19.2534 32.7761 19.9586 32.736 20.6594 32.6563C23.6192 31.5053 26.2339 29.6742 28.2702 27.3262C30.3064 24.9782 31.7009 22.1865 32.3292 19.2002V19.2002Z" fill="#AFB1B8"/>
<path d="M15.1757 3.5803L11.4229 0C8.06808 1.23513 5.18278 3.40643 3.14464 6.22973C1.1065 9.05304 0.0104686 12.3968 0 15.8234H0C0.0125737 19.6097 1.3502 23.2838 3.80116 26.2643C6.25213 29.2448 9.67642 31.3614 13.5321 32.2791C16.974 28.2838 18.9892 23.347 19.2847 18.186C19.5803 13.025 18.1409 7.90862 15.1757 3.5803V3.5803Z" fill="#AFB1B8"/>
<path d="M41.0002 18.6492C40.9867 14.157 39.1076 9.85247 35.7735 6.67598C32.4394 3.49949 27.9213 1.70923 23.2062 1.6963V1.6963C21.0274 1.69415 18.8671 2.0772 16.835 2.826L39.8119 24.7168C40.5987 22.7817 41.0016 20.7244 41.0002 18.6492V18.6492Z" fill="#AFB1B8"/>
</svg>
